#!OML:ASF I:\Actors\actors\Patient Classification 2\Patient 1\Session 1\actor1.ASF
:FULLY-SPECIFIED
:DEGREES

271
root -0.41127 18.0445 5.76945 1.63749 -31.4877 -1.48207
lowerback 2.73731 -8.44384 -1.76956
upperback -1.24023 -11.303 1.44646
thorax -2.16215 -5.6096 2.90626
lowerneck -10.1726 4.36283 15.9316
upperneck 28.973 0.663514 4.46314
head 11.4439 2.32746 -0.971717
rclavicle 5.52163e-014 1.98785e-015
rhumerus 36.9015 40.6852 2.24647
rradius 139.357
rwrist -91.1722
rhand -1.31359 -56.0578
rfingers 7.12502
rthumb 24.3316 -84.5334
lclavicle 5.52163e-014 1.98785e-015
lhumerus 35.2151 34.7967 91.9414
lradius 52.9617
lwrist 73.0046
lhand -33.6964 2.51983
lfingers 7.12502
lthumb -6.88649 32.3878
rfemur 9.55828 17.4465 13.2395
rtibia -19.5138
rfoot 3.51457 -6.70833
rtoes 0.0168964
lfemur 15.0834 18.199 -13.6095
ltibia 1.27222e-014
lfoot -18.8437 15.1478
ltoes 6.27742
272
root -0.415256 18.0454 5.77228 1.66575 -31.5122 -1.45365
lowerback 2.68344 -8.40012 -1.77792
upperback -1.25446 -11.2449 1.41462
thorax -2.15516 -5.58061 2.87009
lowerneck -10.1288 4.36374 16.0626
upperneck 28.8851 0.683031 4.37453
head 11.4047 2.33462 -1.02396
rclavicle 9.56341e-014 -3.8266e-015
rhumerus 36.6575 40.6389 1.99853
rradius 139.406
rwrist -91.1596
rhand -1.62687 -56.1111
rfingers 7.12502
rthumb 24.0312 -84.6266
lclavicle 9.56341e-014 -3.8266e-015
lhumerus 35.1006 34.666 91.7444
lradius 52.9844
lwrist 73.1183
lhand -33.7769 2.58617
lfingers 7.12502
lthumb -6.96416 32.4516
rfemur 9.51373 17.505 13.2062
rtibia -19.5078
rfoot 3.47828 -6.73783
rtoes 0.13158
lfemur 15.0512 18.239 -13.6416
ltibia 4.77083e-015
lfoot -18.835 15.1492
ltoes 6.17071
273
root -0.419013 18.0457 5.77511 1.69712 -31.5403 -1.4436
lowerback 2.6285 -8.4109 -1.8053
upperback -1.25585 -11.259 1.45292
thorax -2.11247 -5.58813 2.91338
lowerneck -10.0021 4.42293 16.0513
upperneck 28.7446 0.848021 4.27009
head 11.3309 2.38697 -1.0425
rclavicle 5.67918e-014 -3.77691e-015
rhumerus 36.7083 40.5727 1.90811
rradius 139.402
rwrist -91.1297
rhand -2.09769 -56.1921
rfingers 7.12502
rthumb 23.5797 -84.7664
lclavicle 5.67918e-014 -3.77691e-015
lhumerus 35.0475 34.7438 91.6161
lradius 53.0245
lwrist 73.2575
lhand -33.7799 2.56341
lfingers 7.12502
lthumb -6.96712 32.4288
rfemur 9.47885 17.568 13.1903
rtibia -19.5126
rfoot 3.46384 -6.77156
rtoes 0.382547
lfemur 15.0321 18.2805 -13.6495
ltibia 1.11319e-014
lfoot -18.8564 15.1188
ltoes 6.2132
274
root -0.42219 18.0462 5.77822 1.72517 -31.5516 -1.45228
lowerback 2.61397 -8.45093 -1.84198
upperback -1.26493 -11.3124 1.53448
thorax -2.08728 -5.61466 3.01267
lowerneck -9.95846 4.4578 15.7731
upperneck 28.6977 0.965393 4.31353
head 11.2999 2.41343 -0.968935
rclavicle -3.2332e-014 -2.88238e-015
rhumerus 36.873 40.5103 1.93199
rradius 139.396
rwrist -91.0966
rhand -2.39733 -56.2019
rfingers 7.12502
rthumb 23.2923 -84.813
lclavicle -3.2332e-014 -2.88238e-015
lhumerus 35.1443 35.0187 91.7271
lradius 53.038
lwrist 73.2421
lhand -33.746 2.65943
lfingers 7.12502
lthumb -6.93442 32.5259
rfemur 9.47323 17.5624 13.1957
rtibia -19.5267
rfoot 3.49471 -6.76008
rtoes 0.501712
lfemur 15.02 18.3055 -13.6414
ltibia -2.70347e-014
lfoot -18.8337 15.1317
ltoes 5.90473
275
root -0.425069 18.0472 5.78041 1.75645 -31.5423 -1.44567
lowerback 2.61481 -8.46797 -1.87763
upperback -1.27993 -11.336 1.57073
thorax -2.08772 -5.62581 3.06904
lowerneck -9.9708 4.46986 15.6689
upperneck 28.6921 1.01027 4.30062
head 11.2981 2.42188 -0.951477
rclavicle 1.42248e-014 -6.55989e-015
rhumerus 36.8435 40.4391 1.8506
rradius 139.446
rwrist -91.1026
rhand -2.44931 -56.199
rfingers 7.12502
rthumb 23.2424 -84.8164
lclavicle 1.42248e-014 -6.55989e-015
lhumerus 35.3548 35.2625 92.0008
lradius 52.9793
lwrist 72.9841
lhand -33.4038 2.60392
lfingers 7.12502
lthumb -6.60406 32.4809
rfemur 9.46175 17.5333 13.1871
rtibia -19.5425
rfoot 3.53321 -6.74194
rtoes 0.325911
lfemur 14.9798 18.3127 -13.657
ltibia -1.74931e-014
lfoot -18.7639 15.1844
ltoes 5.44478
276
root -0.427361 18.0479 5.78215 1.79162 -31.5338 -1.42862
lowerback 2.58719 -8.46819 -1.90168
upperback -1.28137 -11.3367 1.57832
thorax -2.06774 -5.62627 3.08437
lowerneck -9.96263 4.48704 15.6724
upperneck 28.6555 1.06404 4.22777
head 11.2838 2.43683 -0.97241
rclavicle -8.91037e-015 -1.00386e-014
rhumerus 36.7184 40.375 1.71035
rradius 139.503
rwrist -91.0749
rhand -2.49645 -56.1957
rfingers 7.12502
rthumb 23.1972 -84.8188
lclavicle -8.91037e-015 -1.00386e-014
lhumerus 35.4923 35.368 92.1139
lradius 52.8658
lwrist 72.7661
lhand -32.8725 2.30532
lfingers 7.12502
lthumb -6.09108 32.1978
rfemur 9.43352 17.5324 13.165
rtibia -19.5586
rfoot 3.5309 -6.76231
rtoes 0.231182
lfemur 14.9336 18.3206 -13.6814
ltibia -4.92986e-014
lfoot -18.7562 15.1763
ltoes 5.47007
277
root -0.428614 18.0485 5.78552 1.83632 -31.5194 -1.42473
lowerback 2.53186 -8.46259 -1.87491
upperback -1.29007 -11.3276 1.57451
thorax -2.0525 -5.62239 3.05837
lowerneck -9.98841 4.47238 15.5442
upperneck 28.6948 1.05777 4.24931
head 11.2989 2.42596 -0.944533
rclavicle 4.46543e-014 -1.80894e-014
rhumerus 36.6263 40.4062 1.57986
rradius 139.482
rwrist -90.9446
rhand -2.57486 -56.1051
rfingers 7.12502
rthumb 23.1219 -84.7376
lclavicle 4.46543e-014 -1.80894e-014
lhumerus 35.4195 35.321 91.9623
lradius 52.8542
lwrist 72.8191
lhand -32.797 2.16477
lfingers 7.12502
lthumb -6.01821 32.0593
rfemur 9.40167 17.5064 13.1495
rtibia -19.58
rfoot 3.52622 -6.78011
rtoes 0.25316
lfemur 14.8895 18.3231 -13.6949
ltibia -1.59028e-014
lfoot -18.7939 15.1371
ltoes 5.7479
278
root -0.430431 18.0491 5.78857 1.87914 -31.5027 -1.45407
lowerback 2.50412 -8.46338 -1.83891
upperback -1.29621 -11.3271 1.56619
thorax -2.05204 -5.62266 3.0277
lowerneck -10.0676 4.4745 15.5128
upperneck 28.8187 1.04323 4.23385
head 11.3612 2.42259 -0.944617
rclavicle 3.50847e-014 -7.95139e-016
rhumerus 36.578 40.4585 1.41768
rradius 139.394
rwrist -90.8422
rhand -2.6114 -55.9523
rfingers 7.12502
rthumb 23.0869 -84.5892
lclavicle 3.50847e-014 -7.95139e-016
lhumerus 35.2992 35.2661 91.763
lradius 52.95
lwrist 72.9699
lhand -33.1039 2.28765
lfingers 7.12502
lthumb -6.3145 32.1735
rfemur 9.39215 17.4776 13.1748
rtibia -19.6051
rfoot 3.53168 -6.78943
rtoes 0.274698
lfemur 14.8704 18.3211 -13.67
ltibia 2.8625e-014
lfoot -18.8242 15.1143
ltoes 5.9488
279
root -0.432781 18.0487 5.79 1.86791 -31.5007 -1.46532
lowerback 2.56734 -8.46915 -1.88911
upperback -1.30581 -11.3372 1.58802
thorax -2.0824 -5.62623 3.08681
lowerneck -10.0831 4.49551 15.495
upperneck 28.8774 1.07917 4.19793
head 11.3883 2.43665 -0.949474
rclavicle 4.30159e-014 3.18055e-015
rhumerus 36.5544 40.4951 1.29317
rradius 139.339
rwrist -90.8571
rhand -2.63964 -55.9003
rfingers 7.12502
rthumb 23.0598 -84.5406
lclavicle 4.30159e-014 3.18055e-015
lhumerus 35.2567 35.3212 91.6867
lradius 53.0062
lwrist 73.0657
lhand -33.3687 2.47669
lfingers 7.12502
lthumb -6.57016 32.3548
rfemur 9.42659 17.4742 13.2
rtibia -19.626
rfoot 3.56555 -6.79043
rtoes 0.213805
lfemur 14.9053 18.3278 -13.6435
ltibia 2.06736e-014
lfoot -18.8345 15.0921
ltoes 6.02093
